<svg id="svg" version="1.1" xmlns="http://www.w3.org/2000/svg" xmlns:xlink="http://www.w3.org/1999/xlink" width="400" height="331.0006138735421" viewBox="0, 0, 400,331.0006138735421"><g id="svgg"><path id="path0" d="M68.017 23.472 C 27.595 29.330,9.050 77.396,35.152 108.656 C 62.487 141.392,115.260 129.391,125.971 88.003 C 135.167 52.469,104.392 18.201,68.017 23.472 M89.134 232.044 L 89.134 249.233 116.882 249.233 L 144.629 249.233 144.629 232.044 L 144.629 214.856 116.882 214.856 L 89.134 214.856 89.134 232.044 " stroke="none" fill="#24b3b3" fill-rule="evenodd"></path><path id="path1" d="M67.152 0.623 C 23.105 5.436,-7.122 47.105,1.837 90.664 C 5.246 107.240,15.133 123.377,28.181 133.664 L 29.475 134.684 19.342 134.807 C 9.690 134.925,9.147 134.956,7.920 135.459 C 4.005 137.063,1.598 139.693,0.594 143.464 C 0.051 145.504,0.078 309.628,0.622 311.716 C 1.487 315.037,3.664 317.661,6.796 319.157 L 8.717 320.074 155.182 320.136 C 288.679 320.193,301.767 320.164,302.996 319.807 C 306.556 318.771,309.220 316.298,310.639 312.707 C 311.206 311.273,311.225 310.986,311.350 301.987 L 311.479 292.741 347.811 311.484 C 367.793 321.793,384.762 330.402,385.519 330.614 C 391.096 332.179,397.097 329.166,399.309 323.689 L 399.877 322.284 399.943 228.238 C 399.987 164.846,399.927 133.807,399.758 133.009 C 398.543 127.280,392.618 123.241,386.836 124.199 C 384.678 124.556,386.555 123.621,346.157 144.469 C 327.145 154.281,311.537 162.308,311.473 162.308 C 311.409 162.308,311.355 158.524,311.352 153.898 C 311.346 140.906,310.182 138.080,303.770 135.486 L 302.394 134.929 283.802 134.807 L 265.209 134.684 267.207 133.088 C 297.620 108.786,303.312 62.251,279.736 30.645 C 248.347 -11.435,185.230 -9.525,156.447 34.377 C 153.152 39.402,148.843 48.509,147.800 52.651 C 147.530 53.723,147.084 54.192,147.084 53.403 C 147.084 52.779,144.926 47.034,143.636 44.223 C 130.058 14.642,99.303 -2.891,67.152 0.623 M80.330 23.093 C 123.801 27.476,143.244 80.010,113.042 111.477 C 86.618 139.006,40.647 129.908,26.551 94.360 C 12.266 58.333,41.792 19.206,80.330 23.093 M224.380 23.335 C 268.305 28.010,287.234 80.874,256.123 111.985 C 225.258 142.850,172.626 124.430,167.569 80.994 C 163.790 48.533,192.012 19.891,224.380 23.335 M148.166 98.895 C 152.396 112.033,160.857 124.287,172.082 133.532 L 173.629 134.807 147.333 134.807 L 121.037 134.807 123.318 132.934 C 131.062 126.574,137.861 117.903,142.547 108.410 C 144.622 104.205,147.084 98.079,147.084 97.119 C 147.084 96.190,147.531 96.924,148.166 98.895 M377.409 227.487 C 377.409 267.792,377.327 300.812,377.225 300.864 C 377.124 300.917,362.234 293.315,344.138 283.971 L 311.234 266.981 311.172 227.584 L 311.110 188.187 343.953 171.218 C 362.016 161.884,376.934 154.239,377.103 154.227 C 377.347 154.209,377.409 169.014,377.409 227.487 M288.521 227.502 L 288.521 297.360 155.801 297.360 L 23.082 297.360 23.082 227.502 L 23.082 157.643 155.801 157.643 L 288.521 157.643 288.521 227.502 M75.558 192.300 C 71.639 193.051,68.355 195.958,67.050 199.832 C 66.538 201.352,66.537 201.465,66.602 232.600 L 66.667 263.843 67.449 265.494 C 68.829 268.406,71.395 270.669,74.356 271.584 C 76.765 272.328,157.198 272.347,159.585 271.604 C 163.185 270.483,166.045 267.563,167.081 263.951 C 167.431 262.729,167.465 259.340,167.407 231.526 L 167.342 200.465 166.400 198.560 C 164.758 195.237,161.756 192.919,158.273 192.285 C 156.431 191.950,77.311 191.964,75.558 192.300 M144.814 232.106 L 144.751 249.355 116.943 249.418 L 89.134 249.480 89.134 232.168 L 89.134 214.856 117.006 214.856 L 144.877 214.856 144.814 232.106 " stroke="none" fill="#4b4c4c" fill-rule="evenodd"></path><path id="path2" d="M344.138 171.243 L 311.234 188.216 311.172 227.519 L 311.110 266.823 344.050 283.815 C 362.168 293.161,377.030 300.768,377.078 300.720 C 377.126 300.673,377.137 267.702,377.103 227.452 L 377.041 154.270 344.138 171.243 " stroke="none" fill="#fb341c" fill-rule="evenodd"></path><path id="path3" d="M73.492 23.019 C 74.545 23.065,76.202 23.065,77.175 23.018 C 78.148 22.972,77.287 22.934,75.261 22.934 C 73.235 22.935,72.439 22.973,73.492 23.019 M38.177 38.367 L 36.219 40.393 38.244 38.434 C 40.126 36.615,40.382 36.341,40.203 36.341 C 40.166 36.341,39.254 37.253,38.177 38.367 M23.139 70.227 C 23.139 70.700,23.189 70.893,23.251 70.657 C 23.313 70.421,23.313 70.034,23.251 69.797 C 23.189 69.561,23.139 69.754,23.139 70.227 M127.514 72.437 C 127.514 73.180,127.560 73.484,127.616 73.112 C 127.672 72.741,127.672 72.133,127.616 71.762 C 127.560 71.390,127.514 71.694,127.514 72.437 M22.928 75.261 C 22.929 76.746,22.969 77.323,23.018 76.541 C 23.067 75.760,23.066 74.544,23.017 73.840 C 22.967 73.136,22.927 73.775,22.928 75.261 M127.510 77.962 C 127.512 78.637,127.560 78.884,127.616 78.511 C 127.673 78.138,127.671 77.585,127.613 77.283 C 127.555 76.981,127.509 77.287,127.510 77.962 M113.797 110.559 L 113.076 111.357 113.874 110.635 C 114.312 110.239,114.672 109.880,114.672 109.837 C 114.672 109.648,114.469 109.815,113.797 110.559 M38.183 112.216 C 39.121 113.161,39.944 113.935,40.011 113.935 C 40.079 113.935,39.367 113.161,38.428 112.216 C 37.490 111.271,36.668 110.497,36.600 110.497 C 36.533 110.497,37.245 111.271,38.183 112.216 M110.359 113.996 L 109.638 114.794 110.436 114.073 C 111.180 113.401,111.347 113.198,111.157 113.198 C 111.115 113.198,110.756 113.557,110.359 113.996 M73.736 127.622 C 74.654 127.670,76.090 127.669,76.929 127.622 C 77.767 127.574,77.017 127.535,75.261 127.536 C 73.505 127.536,72.819 127.575,73.736 127.622 M144.688 231.982 L 144.629 249.231 116.820 249.294 L 89.012 249.358 116.828 249.418 C 138.899 249.466,144.668 249.415,144.761 249.171 C 144.826 249.002,144.849 241.185,144.813 231.799 L 144.748 214.733 144.688 231.982 " stroke="none" fill="#3a7c7c" fill-rule="evenodd"></path><path id="path4" d="M377.164 227.551 C 377.096 267.958,377.124 300.936,377.226 300.834 C 377.327 300.733,377.382 267.672,377.348 227.366 L 377.287 154.082 377.164 227.551 " stroke="none" fill="#644444" fill-rule="evenodd"></path></g></svg>